<svg width="36" height="36" viewBox="0 0 36 36" fill="none" xmlns="http://www.w3.org/2000/svg">
<rect x="0.5" y="0.5" width="35" height="35" rx="17.5" stroke="white"/>
<g clip-path="url(#clip0_24_737)">
<path d="M13.0638 9.36418C13.0487 9.36367 13.0338 9.36728 13.0205 9.37462C13.0073 9.38196 12.9964 9.39276 12.9888 9.40585L8.01215 17.9584C8.0042 17.9714 8 17.9864 8 18.0017C8 18.017 8.0042 18.032 8.01215 18.045L13.0447 26.595C13.078 26.6517 13.1613 26.6517 13.1947 26.595L18.1713 18.0434C18.179 18.0301 18.1829 18.0151 18.1826 17.9998C18.1823 17.9845 18.1779 17.9696 18.1697 17.9567L13.1388 9.40585C13.1313 9.39276 13.1203 9.38196 13.1071 9.37462C13.0939 9.36728 13.0789 9.36367 13.0638 9.36418ZM15.4497 9.36418C15.4346 9.36411 15.4198 9.368 15.4067 9.37546C15.3936 9.38293 15.3827 9.3937 15.3751 9.40671C15.3675 9.41971 15.3635 9.43449 15.3634 9.44955C15.3633 9.46461 15.3672 9.47943 15.3747 9.49252L19.6963 16.965C19.7035 16.9786 19.7144 16.9899 19.7276 16.9977C19.7408 17.0055 19.756 17.0094 19.7713 17.0092H22.3688C22.4355 17.0092 22.4772 16.9359 22.4438 16.8784L18.1222 9.40668C18.1147 9.39343 18.1038 9.38247 18.0906 9.37498C18.0774 9.36749 18.0623 9.36376 18.0472 9.36418H15.4497ZM20.3588 9.36418C20.3438 9.36415 20.329 9.36809 20.316 9.37561C20.303 9.38314 20.2923 9.39397 20.2848 9.40701C20.2774 9.42005 20.2735 9.43484 20.2736 9.44985C20.2737 9.46487 20.2778 9.47959 20.2855 9.49252L25.2138 18L20.2855 26.5075C20.2778 26.5204 20.2737 26.5352 20.2736 26.5502C20.2735 26.5652 20.2774 26.58 20.2848 26.593C20.2923 26.6061 20.303 26.6169 20.316 26.6244C20.329 26.6319 20.3438 26.6359 20.3588 26.6359H22.9613C22.9761 26.6361 22.9908 26.6323 23.0036 26.625C23.0165 26.6177 23.0272 26.607 23.0347 26.5942L27.9888 18.0425C27.9965 18.0297 28.0005 18.015 28.0005 18C28.0005 17.9851 27.9965 17.9704 27.9888 17.9575L23.0347 9.40668C23.0274 9.39369 23.0167 9.38289 23.0038 9.37541C22.9909 9.36794 22.9762 9.36406 22.9613 9.36418H20.3588ZM19.7005 19.1142C19.6854 19.114 19.6705 19.1179 19.6574 19.1256C19.6443 19.1332 19.6336 19.1442 19.6263 19.1575L15.3755 26.5075C15.3422 26.565 15.3838 26.6359 15.4505 26.6359H18.048C18.0631 26.6364 18.0781 26.6327 18.0913 26.6254C18.1045 26.6181 18.1154 26.6073 18.123 26.5942L22.373 19.2442C22.3807 19.2311 22.3847 19.2162 22.3847 19.201C22.3848 19.1858 22.3808 19.1709 22.3731 19.1577C22.3655 19.1446 22.3545 19.1337 22.3413 19.1262C22.3281 19.1187 22.3132 19.1149 22.298 19.115L19.7005 19.1142Z" fill="white"/>
</g>
<defs>
<clipPath id="clip0_24_737">
<rect width="20" height="20" fill="white" transform="translate(8 8)"/>
</clipPath>
</defs>
</svg>
