<svg width="15" height="13" viewBox="0 0 15 13" fill="none" xmlns="http://www.w3.org/2000/svg">
<path d="M14.4062 0.672852H10.6078C9.79268 0.672852 8.9958 0.906934 8.31016 1.34854L7.5 1.86816L6.68984 1.34854C6.00488 0.907019 5.20712 0.672416 4.39219 0.672852H0.59375C0.299902 0.672852 0.0625 0.910254 0.0625 1.2041V10.6338C0.0625 10.9276 0.299902 11.165 0.59375 11.165H4.39219C5.20732 11.165 6.0042 11.3991 6.68984 11.8407L7.42695 12.3155C7.44854 12.3288 7.47344 12.3371 7.49834 12.3371C7.52324 12.3371 7.54814 12.3305 7.56973 12.3155L8.30684 11.8407C8.99414 11.3991 9.79268 11.165 10.6078 11.165H14.4062C14.7001 11.165 14.9375 10.9276 14.9375 10.6338V1.2041C14.9375 0.910254 14.7001 0.672852 14.4062 0.672852ZM4.39219 9.96973H1.25781V1.86816H4.39219C4.97988 1.86816 5.55098 2.03584 6.04404 2.35293L6.8542 2.87256L6.96875 2.94727V10.6172C6.17852 10.1922 5.29531 9.96973 4.39219 9.96973ZM13.7422 9.96973H10.6078C9.70469 9.96973 8.82148 10.1922 8.03125 10.6172V2.94727L8.1458 2.87256L8.95596 2.35293C9.44902 2.03584 10.0201 1.86816 10.6078 1.86816H13.7422V9.96973ZM5.58916 3.99316H2.50459C2.43984 3.99316 2.38672 4.04961 2.38672 4.11768V4.86475C2.38672 4.93281 2.43984 4.98926 2.50459 4.98926H5.5875C5.65225 4.98926 5.70537 4.93281 5.70537 4.86475V4.11768C5.70703 4.04961 5.65391 3.99316 5.58916 3.99316ZM9.29297 4.11768V4.86475C9.29297 4.93281 9.34609 4.98926 9.41084 4.98926H12.4937C12.5585 4.98926 12.6116 4.93281 12.6116 4.86475V4.11768C12.6116 4.04961 12.5585 3.99316 12.4937 3.99316H9.41084C9.34609 3.99316 9.29297 4.04961 9.29297 4.11768ZM5.58916 6.31738H2.50459C2.43984 6.31738 2.38672 6.37383 2.38672 6.44189V7.18896C2.38672 7.25703 2.43984 7.31348 2.50459 7.31348H5.5875C5.65225 7.31348 5.70537 7.25703 5.70537 7.18896V6.44189C5.70703 6.37383 5.65391 6.31738 5.58916 6.31738ZM12.4954 6.31738H9.41084C9.34609 6.31738 9.29297 6.37383 9.29297 6.44189V7.18896C9.29297 7.25703 9.34609 7.31348 9.41084 7.31348H12.4937C12.5585 7.31348 12.6116 7.25703 12.6116 7.18896V6.44189C12.6133 6.37383 12.5602 6.31738 12.4954 6.31738Z" fill="#CBCBCB"/>
</svg>
