<svg width="21" height="15" viewBox="0 0 21 15" fill="none" xmlns="http://www.w3.org/2000/svg">
<path d="M1.57577 0.208313H8.86743C9.25421 0.208313 9.62514 0.361958 9.89863 0.635449C10.1721 0.90894 10.3258 1.27987 10.3258 1.66665C10.3258 2.05342 10.1721 2.42435 9.89863 2.69784C9.62514 2.97134 9.25421 3.12498 8.86743 3.12498H1.57577C1.18899 3.12498 0.818058 2.97134 0.544568 2.69784C0.271077 2.42435 0.117432 2.05342 0.117432 1.66665C0.117432 1.27987 0.271077 0.90894 0.544568 0.635449C0.818058 0.361958 1.18899 0.208313 1.57577 0.208313ZM11.7841 11.875H19.0758C19.4625 11.875 19.8335 12.0286 20.107 12.3021C20.3805 12.5756 20.5341 12.9465 20.5341 13.3333C20.5341 13.7201 20.3805 14.091 20.107 14.3645C19.8335 14.638 19.4625 14.7917 19.0758 14.7917H11.7841C11.3973 14.7917 11.0264 14.638 10.7529 14.3645C10.4794 14.091 10.3258 13.7201 10.3258 13.3333C10.3258 12.9465 10.4794 12.5756 10.7529 12.3021C11.0264 12.0286 11.3973 11.875 11.7841 11.875ZM1.57577 6.04165H19.0758C19.4625 6.04165 19.8335 6.19529 20.107 6.46878C20.3805 6.74227 20.5341 7.11321 20.5341 7.49998C20.5341 7.88676 20.3805 8.25769 20.107 8.53118C19.8335 8.80467 19.4625 8.95831 19.0758 8.95831H1.57577C1.18899 8.95831 0.818058 8.80467 0.544568 8.53118C0.271077 8.25769 0.117432 7.88676 0.117432 7.49998C0.117432 7.11321 0.271077 6.74227 0.544568 6.46878C0.818058 6.19529 1.18899 6.04165 1.57577 6.04165Z" fill="white"/>
</svg>
