<svg width="36" height="36" viewBox="0 0 36 36" fill="none" xmlns="http://www.w3.org/2000/svg">
<g clip-path="url(#clip0_24_729)">
<path d="M17 12H14.15C12.6946 11.9799 11.2779 12.4684 10.1442 13.3812C9.01053 14.294 8.23096 15.5739 7.94 17H2V19H7.93C8.21586 20.4305 8.99543 21.715 10.1324 22.629C11.2694 23.543 12.6915 24.0283 14.15 24H17V12Z" fill="white"/>
<path d="M28.23 17C27.9384 15.5704 27.1559 14.288 26.0181 13.3748C24.8802 12.4616 23.4588 11.9752 22 12H19V24H22C23.4585 24.0283 24.8806 23.543 26.0176 22.629C27.1546 21.715 27.9341 20.4305 28.22 19H34V17H28.23Z" fill="white"/>
</g>
<rect x="0.5" y="0.5" width="35" height="35" rx="17.5" stroke="white"/>
<defs>
<clipPath id="clip0_24_729">
<rect width="36" height="36" rx="18" fill="white"/>
</clipPath>
</defs>
</svg>
