<svg width="15" height="15" viewBox="0 0 15 15" fill="none" xmlns="http://www.w3.org/2000/svg">
<path d="M7.5 13.125C8.23869 13.125 8.97014 12.9795 9.65259 12.6968C10.3351 12.4141 10.9551 11.9998 11.4775 11.4775C11.9998 10.9551 12.4141 10.3351 12.6968 9.65259C12.9795 8.97014 13.125 8.23869 13.125 7.5C13.125 6.76131 12.9795 6.02986 12.6968 5.34741C12.4141 4.66495 11.9998 4.04485 11.4775 3.52252C10.9551 3.00019 10.3351 2.58586 9.65259 2.30318C8.97014 2.02049 8.23869 1.875 7.5 1.875C6.00816 1.875 4.57742 2.46763 3.52252 3.52252C2.46763 4.57742 1.875 6.00816 1.875 7.5C1.875 8.99184 2.46763 10.4226 3.52252 11.4775C4.57742 12.5324 6.00816 13.125 7.5 13.125ZM14.375 7.5C14.375 11.2969 11.2969 14.375 7.5 14.375C3.70312 14.375 0.625 11.2969 0.625 7.5C0.625 3.70312 3.70312 0.625 7.5 0.625C11.2969 0.625 14.375 3.70312 14.375 7.5ZM5.95312 5.95375C5.54287 6.36401 5.31239 6.92043 5.31239 7.50063C5.31239 8.08082 5.54287 8.63724 5.95312 9.0475C6.36338 9.45776 6.91981 9.68824 7.5 9.68824C8.08019 9.68824 8.63662 9.45776 9.04688 9.0475L9.48875 8.605L10.3725 9.48938L9.93062 9.93125C9.44989 10.412 8.83738 10.7394 8.17057 10.8721C7.50376 11.0047 6.81258 10.9366 6.18445 10.6765C5.55632 10.4163 5.01945 9.97571 4.64172 9.41041C4.264 8.84512 4.06239 8.18051 4.06239 7.50063C4.06239 6.82075 4.264 6.15613 4.64172 5.59084C5.01945 5.02554 5.55632 4.58495 6.18445 4.32477C6.81258 4.0646 7.50376 3.99654 8.17057 4.12919C8.83738 4.26184 9.44989 4.58924 9.93062 5.07L10.3725 5.51188L9.48875 6.39563L9.04688 5.95375C8.84374 5.7506 8.60259 5.58945 8.33717 5.4795C8.07176 5.36956 7.78729 5.31297 7.5 5.31297C7.21271 5.31297 6.92824 5.36956 6.66283 5.4795C6.39741 5.58945 6.15626 5.7506 5.95312 5.95375Z" fill="white"/>
</svg>
