<svg width="35" height="39" viewBox="0 0 35 39" fill="none" xmlns="http://www.w3.org/2000/svg">
<rect width="35" height="39" fill="#321EAE"/>
<path d="M21.8467 15.5533C20.96 15.14 20 14.84 19 14.6667C18.9912 14.6664 18.9825 14.668 18.9744 14.6715C18.9664 14.6749 18.9592 14.6801 18.9533 14.6867C18.8333 14.9067 18.6933 15.1933 18.6 15.4133C17.5393 15.2533 16.4607 15.2533 15.4 15.4133C15.3067 15.1867 15.1667 14.9067 15.04 14.6867C15.0333 14.6733 15.0133 14.6667 14.9933 14.6667C13.9933 14.84 13.04 15.14 12.1467 15.5533C12.14 15.5533 12.1333 15.56 12.1267 15.5667C10.3133 18.28 9.81333 20.92 10.06 23.5333C10.06 23.5467 10.0667 23.56 10.08 23.5667C11.28 24.4467 12.4333 24.98 13.5733 25.3333C13.5933 25.34 13.6133 25.3333 13.62 25.32C13.8867 24.9533 14.1267 24.5667 14.3333 24.16C14.3467 24.1333 14.3333 24.1067 14.3067 24.1C13.9267 23.9533 13.5667 23.78 13.2133 23.58C13.1867 23.5667 13.1867 23.5267 13.2067 23.5067C13.28 23.4533 13.3533 23.3933 13.4267 23.34C13.44 23.3267 13.46 23.3267 13.4733 23.3333C15.7667 24.38 18.24 24.38 20.5067 23.3333C20.52 23.3267 20.54 23.3267 20.5533 23.34C20.6267 23.4 20.7 23.4533 20.7733 23.5133C20.8 23.5333 20.8 23.5733 20.7667 23.5867C20.42 23.7933 20.0533 23.96 19.6733 24.1067C19.6467 24.1133 19.64 24.1467 19.6467 24.1667C19.86 24.5733 20.1 24.96 20.36 25.3267C20.38 25.3333 20.4 25.34 20.42 25.3333C21.5667 24.98 22.72 24.4467 23.92 23.5667C23.9333 23.56 23.94 23.5467 23.94 23.5333C24.2333 20.5133 23.4533 17.8933 21.8733 15.5667C21.8667 15.56 21.86 15.5533 21.8467 15.5533ZM14.68 21.94C13.9933 21.94 13.42 21.3067 13.42 20.5267C13.42 19.7467 13.98 19.1133 14.68 19.1133C15.3867 19.1133 15.9467 19.7533 15.94 20.5267C15.94 21.3067 15.38 21.94 14.68 21.94ZM19.3267 21.94C18.64 21.94 18.0667 21.3067 18.0667 20.5267C18.0667 19.7467 18.6267 19.1133 19.3267 19.1133C20.0333 19.1133 20.5933 19.7533 20.5867 20.5267C20.5867 21.3067 20.0333 21.94 19.3267 21.94Z" fill="white"/>
</svg>
