<svg width="25" height="25" viewBox="0 0 25 25" fill="none" xmlns="http://www.w3.org/2000/svg">
<path d="M19.3314 5.83005C18.0014 5.21005 16.5614 4.76005 15.0614 4.50005C15.0482 4.49963 15.0352 4.50209 15.0231 4.50728C15.011 4.51246 15.0002 4.52023 14.9914 4.53005C14.8114 4.86005 14.6014 5.29005 14.4614 5.62005C12.8704 5.38005 11.2524 5.38005 9.6614 5.62005C9.5214 5.28005 9.3114 4.86005 9.1214 4.53005C9.1114 4.51005 9.0814 4.50005 9.0514 4.50005C7.5514 4.76005 6.1214 5.21005 4.7814 5.83005C4.7714 5.83005 4.7614 5.84005 4.7514 5.85005C2.0314 9.92005 1.2814 13.88 1.6514 17.8C1.6514 17.82 1.6614 17.84 1.6814 17.85C3.4814 19.17 5.2114 19.97 6.9214 20.5C6.9514 20.51 6.9814 20.5 6.9914 20.48C7.3914 19.93 7.7514 19.35 8.0614 18.74C8.0814 18.7 8.0614 18.66 8.0214 18.65C7.4514 18.43 6.9114 18.17 6.3814 17.87C6.3414 17.85 6.3414 17.79 6.3714 17.76C6.4814 17.68 6.5914 17.59 6.7014 17.51C6.7214 17.49 6.7514 17.49 6.7714 17.5C10.2114 19.07 13.9214 19.07 17.3214 17.5C17.3414 17.49 17.3714 17.49 17.3914 17.51C17.5014 17.6 17.6114 17.68 17.7214 17.77C17.7614 17.8 17.7614 17.86 17.7114 17.88C17.1914 18.19 16.6414 18.44 16.0714 18.66C16.0314 18.67 16.0214 18.72 16.0314 18.75C16.3514 19.36 16.7114 19.94 17.1014 20.49C17.1314 20.5 17.1614 20.51 17.1914 20.5C18.9114 19.97 20.6414 19.17 22.4414 17.85C22.4614 17.84 22.4714 17.82 22.4714 17.8C22.9114 13.27 21.7414 9.34005 19.3714 5.85005C19.3614 5.84005 19.3514 5.83005 19.3314 5.83005ZM8.5814 15.41C7.5514 15.41 6.6914 14.46 6.6914 13.29C6.6914 12.12 7.5314 11.17 8.5814 11.17C9.6414 11.17 10.4814 12.13 10.4714 13.29C10.4714 14.46 9.6314 15.41 8.5814 15.41ZM15.5514 15.41C14.5214 15.41 13.6614 14.46 13.6614 13.29C13.6614 12.12 14.5014 11.17 15.5514 11.17C16.6114 11.17 17.4514 12.13 17.4414 13.29C17.4414 14.46 16.6114 15.41 15.5514 15.41Z" fill="#C1C1C1"/>
</svg>
