<svg width="1440" height="624" viewBox="0 0 1440 624" fill="none" xmlns="http://www.w3.org/2000/svg">
<path d="M1655.5 312C1655.5 354.859 1629.44 395.77 1582.14 433.052C1534.83 470.33 1466.36 503.922 1381.69 532.143C1212.37 588.583 978.43 623.5 720 623.5C461.57 623.5 227.625 588.583 58.3062 532.143C-26.3561 503.922 -94.8334 470.33 -142.135 433.052C-189.442 395.77 -215.5 354.859 -215.5 312C-215.5 269.141 -189.442 228.23 -142.135 190.948C-94.8334 153.67 -26.3561 120.078 58.3062 91.857C227.625 35.4173 461.57 0.5 720 0.5C978.43 0.5 1212.37 35.4173 1381.69 91.857C1466.36 120.078 1534.83 153.67 1582.14 190.948C1629.44 228.23 1655.5 269.141 1655.5 312Z" stroke="url(#paint0_linear_24_705)" stroke-opacity="0.1"/>
<defs>
<linearGradient id="paint0_linear_24_705" x1="719.885" y1="4.29345e-06" x2="719.885" y2="624" gradientUnits="userSpaceOnUse">
<stop stop-opacity="0"/>
<stop offset="1" stop-color="white"/>
</linearGradient>
</defs>
</svg>
