<svg width="322" height="100" viewBox="0 0 322 100" fill="none" xmlns="http://www.w3.org/2000/svg">
<path d="M320.855 50C320.855 56.6695 316.51 63.1161 308.432 69.0595C300.364 74.9955 288.657 80.3622 274.145 84.8779C245.128 93.9074 205.011 99.5 160.678 99.5C116.344 99.5 76.2267 93.9074 47.2099 84.8779C32.6985 80.3622 20.9915 74.9955 12.9231 69.0595C4.84472 63.1161 0.5 56.6695 0.5 50C0.5 43.3305 4.84472 36.8839 12.9231 30.9405C20.9915 25.0045 32.6985 19.6378 47.2099 15.1221C76.2267 6.09257 116.344 0.5 160.678 0.5C205.011 0.5 245.128 6.09257 274.145 15.1221C288.657 19.6378 300.364 25.0045 308.432 30.9405C316.51 36.8839 320.855 43.3305 320.855 50Z" stroke="black" stroke-opacity="0.16"/>
</svg>
