<svg width="1440" height="760" viewBox="0 0 1440 760" fill="none" xmlns="http://www.w3.org/2000/svg">
<path d="M1940.8 380C1940.8 432.233 1906.78 482.086 1845.04 527.51C1783.31 572.927 1693.95 613.848 1583.48 648.223C1362.56 716.971 1057.33 759.5 720.15 759.5C382.975 759.5 77.7397 716.971 -143.185 648.223C-253.65 613.848 -343.009 572.927 -404.74 527.51C-466.481 482.086 -500.5 432.233 -500.5 380C-500.5 327.767 -466.481 277.914 -404.74 232.49C-343.009 187.073 -253.65 146.152 -143.185 111.777C77.7397 43.0291 382.975 0.5 720.15 0.5C1057.33 0.5 1362.56 43.0291 1583.48 111.777C1693.95 146.152 1783.31 187.073 1845.04 232.49C1906.78 277.914 1940.8 327.767 1940.8 380Z" stroke="url(#paint0_linear_24_704)" stroke-opacity="0.2"/>
<defs>
<linearGradient id="paint0_linear_24_704" x1="720" y1="5.22921e-06" x2="720" y2="760" gradientUnits="userSpaceOnUse">
<stop stop-opacity="0"/>
<stop offset="1" stop-color="white"/>
</linearGradient>
</defs>
</svg>
