<svg width="390" height="243" viewBox="0 0 390 243" fill="none" xmlns="http://www.w3.org/2000/svg">
<path d="M559.5 121.5C559.5 138.057 549.434 153.909 531.046 168.401C512.664 182.887 486.034 195.955 453.082 206.939C387.184 228.905 296.115 242.5 195.5 242.5C94.8849 242.5 3.81577 228.905 -62.0823 206.939C-95.034 195.955 -121.664 182.887 -140.046 168.401C-158.434 153.909 -168.5 138.057 -168.5 121.5C-168.5 104.943 -158.434 89.0906 -140.046 74.5994C-121.664 60.1127 -95.034 47.0448 -62.0823 36.0609C3.81577 14.0948 94.8849 0.5 195.5 0.5C296.115 0.5 387.184 14.0948 453.082 36.0609C486.034 47.0448 512.664 60.1127 531.046 74.5994C549.434 89.0906 559.5 104.943 559.5 121.5Z" stroke="url(#paint0_linear_24_977)" stroke-opacity="0.1"/>
<defs>
<linearGradient id="paint0_linear_24_977" x1="195.455" y1="1.67197e-06" x2="195.455" y2="243" gradientUnits="userSpaceOnUse">
<stop stop-opacity="0"/>
<stop offset="1" stop-color="white"/>
</linearGradient>
</defs>
</svg>
