<svg width="743" height="231" viewBox="0 0 743 231" fill="none" xmlns="http://www.w3.org/2000/svg">
<path d="M741.83 115.5C741.83 131.213 731.596 146.275 712.866 160.055C694.147 173.827 667.027 186.251 633.47 196.693C566.363 217.576 473.624 230.5 371.165 230.5C268.707 230.5 175.968 217.576 108.86 196.693C75.3036 186.251 48.1839 173.827 29.4643 160.055C10.7346 146.275 0.5 131.213 0.5 115.5C0.5 99.7868 10.7346 84.7247 29.4643 70.9449C48.1839 57.1726 75.3036 44.7489 108.86 34.3066C175.968 13.4239 268.707 0.5 371.165 0.5C473.624 0.5 566.363 13.4239 633.47 34.3066C667.027 44.7489 694.147 57.1726 712.866 70.9449C731.596 84.7247 741.83 99.7868 741.83 115.5Z" stroke="black" stroke-opacity="0.16"/>
</svg>
