<svg width="1116" height="347" viewBox="0 0 1116 347" fill="none" xmlns="http://www.w3.org/2000/svg">
<path d="M1114.6 173.5C1114.6 197.221 1099.15 219.913 1070.99 240.631C1042.84 261.343 1002.07 280.015 951.651 295.706C850.814 327.084 711.479 346.5 557.551 346.5C403.624 346.5 264.288 327.084 163.452 295.706C113.03 280.015 72.2627 261.343 44.1115 240.631C15.9501 219.913 0.5 197.221 0.5 173.5C0.5 149.779 15.9501 127.087 44.1115 106.369C72.2627 85.6574 113.03 66.9846 163.452 51.2944C264.288 19.9158 403.624 0.5 557.551 0.5C711.479 0.5 850.814 19.9158 951.651 51.2944C1002.07 66.9846 1042.84 85.6574 1070.99 106.369C1099.15 127.087 1114.6 149.779 1114.6 173.5Z" stroke="black" stroke-opacity="0.21"/>
</svg>
