<svg width="390" height="195" viewBox="0 0 390 195" fill="none" xmlns="http://www.w3.org/2000/svg">
<path d="M508.143 97.5C508.143 110.728 499.527 123.422 483.724 135.049C467.932 146.667 445.047 157.152 416.724 165.965C360.085 183.591 281.807 194.5 195.321 194.5C108.836 194.5 30.5582 183.591 -26.0817 165.965C-54.4047 157.152 -77.2888 146.667 -93.0813 135.049C-108.884 123.422 -117.5 110.728 -117.5 97.5C-117.5 84.2721 -108.884 71.5776 -93.0813 59.9513C-77.2888 48.3325 -54.4047 37.8481 -26.0817 29.0345C30.5582 11.4092 108.836 0.5 195.321 0.5C281.807 0.5 360.085 11.4092 416.724 29.0345C445.047 37.8481 467.932 48.3325 483.724 59.9513C499.527 71.5776 508.143 84.2721 508.143 97.5Z" stroke="black" stroke-opacity="0.16"/>
</svg>
