<svg width="58" height="58" viewBox="0 0 58 58" fill="none" xmlns="http://www.w3.org/2000/svg">
<path d="M29 34.9813L33.5917 37.7604C34.0347 38.0424 34.4778 38.0327 34.9208 37.7314C35.3639 37.4301 35.525 37.0169 35.4042 36.4917L34.1958 31.2354L38.3042 27.6708C38.7069 27.3083 38.8278 26.8758 38.6667 26.3731C38.5056 25.8704 38.1431 25.5981 37.5792 25.5562L32.2021 25.1333L30.0875 20.1792C29.8861 19.6958 29.5236 19.4542 29 19.4542C28.4764 19.4542 28.1139 19.6958 27.9125 20.1792L25.7979 25.1333L20.4208 25.5562C19.8569 25.5965 19.4944 25.8688 19.3333 26.3731C19.1722 26.8774 19.2931 27.3099 19.6958 27.6708L23.8042 31.2354L22.5958 36.4917C22.475 37.0153 22.6361 37.4285 23.0792 37.7314C23.5222 38.0343 23.9653 38.044 24.4083 37.7604L29 34.9813ZM20.9042 48.3333H14.5C13.1708 48.3333 12.0334 47.8605 11.0877 46.9148C10.1419 45.969 9.66828 44.8308 9.66667 43.5V37.0958L5.01458 32.3833C4.57153 31.9 4.22917 31.3667 3.9875 30.7835C3.74583 30.2003 3.625 29.6058 3.625 29C3.625 28.3942 3.74583 27.8005 3.9875 27.2189C4.22917 26.6373 4.57153 26.1032 5.01458 25.6167L9.66667 20.9042V14.5C9.66667 13.1708 10.1403 12.0334 11.0877 11.0877C12.035 10.1419 13.1724 9.66828 14.5 9.66667H20.9042L25.6167 5.01458C26.1 4.57153 26.6341 4.22917 27.2189 3.9875C27.8037 3.74583 28.3974 3.625 29 3.625C29.6026 3.625 30.1971 3.74583 30.7835 3.9875C31.3699 4.22917 31.9032 4.57153 32.3833 5.01458L37.0958 9.66667H43.5C44.8292 9.66667 45.9674 10.1403 46.9148 11.0877C47.8621 12.035 48.3349 13.1724 48.3333 14.5V20.9042L52.9854 25.6167C53.4285 26.1 53.7708 26.6341 54.0125 27.2189C54.2542 27.8037 54.375 28.3974 54.375 29C54.375 29.6026 54.2542 30.1971 54.0125 30.7835C53.7708 31.3699 53.4285 31.9032 52.9854 32.3833L48.3333 37.0958V43.5C48.3333 44.8292 47.8605 45.9674 46.9148 46.9148C45.969 47.8621 44.8308 48.3349 43.5 48.3333H37.0958L32.3833 52.9854C31.9 53.4285 31.3667 53.7708 30.7835 54.0125C30.2003 54.2542 29.6058 54.375 29 54.375C28.3942 54.375 27.8005 54.2542 27.2189 54.0125C26.6373 53.7708 26.1032 53.4285 25.6167 52.9854L20.9042 48.3333ZM22.9583 43.5L29 49.5417L35.0417 43.5H43.5V35.0417L49.5417 29L43.5 22.9583V14.5H35.0417L29 8.45833L22.9583 14.5H14.5V22.9583L8.45833 29L14.5 35.0417V43.5H22.9583Z" fill="url(#paint0_linear_24_947)"/>
<defs>
<linearGradient id="paint0_linear_24_947" x1="29" y1="3.625" x2="29" y2="54.375" gradientUnits="userSpaceOnUse">
<stop stop-color="#25DEF7"/>
<stop offset="0.73"/>
</linearGradient>
</defs>
</svg>
