<svg width="12" height="9" viewBox="0 0 12 9" fill="none" xmlns="http://www.w3.org/2000/svg">
<path d="M6.64341 8.66949C6.58197 8.60797 6.54745 8.52457 6.54745 8.43762C6.54745 8.35066 6.58197 8.26726 6.64341 8.20574L10.0204 4.82824L1.18779 4.82824C1.10076 4.82824 1.0173 4.79367 0.955769 4.73214C0.894234 4.6706 0.859664 4.58714 0.859664 4.50012C0.859664 4.41309 0.894234 4.32963 0.955769 4.2681C1.0173 4.20656 1.10076 4.17199 1.18779 4.17199H10.0204L6.64341 0.794491C6.58545 0.732289 6.5539 0.650019 6.5554 0.565012C6.5569 0.480006 6.59134 0.3989 6.65145 0.338781C6.71157 0.278663 6.79268 0.244227 6.87769 0.242727C6.96269 0.241227 7.04496 0.272781 7.10716 0.330741L11.0447 4.26824C11.1061 4.32976 11.1406 4.41316 11.1406 4.50012C11.1406 4.58707 11.1061 4.67047 11.0447 4.73199L7.10716 8.66949C7.04564 8.73094 6.96224 8.76545 6.87529 8.76545C6.78834 8.76545 6.70494 8.73094 6.64341 8.66949Z" fill="#949494"/>
</svg>
