<svg width="25" height="25" viewBox="0 0 25 25" fill="none" xmlns="http://www.w3.org/2000/svg">
<path d="M7.8614 2.5H16.2614C19.4614 2.5 22.0614 5.1 22.0614 8.3V16.7C22.0614 18.2383 21.4503 19.7135 20.3626 20.8012C19.2749 21.8889 17.7997 22.5 16.2614 22.5H7.8614C4.6614 22.5 2.0614 19.9 2.0614 16.7V8.3C2.0614 6.76174 2.67247 5.28649 3.76018 4.19878C4.84789 3.11107 6.32315 2.5 7.8614 2.5ZM7.6614 4.5C6.70662 4.5 5.79095 4.87928 5.11582 5.55442C4.44069 6.22955 4.0614 7.14522 4.0614 8.1V16.9C4.0614 18.89 5.6714 20.5 7.6614 20.5H16.4614C17.4162 20.5 18.3319 20.1207 19.007 19.4456C19.6821 18.7705 20.0614 17.8548 20.0614 16.9V8.1C20.0614 6.11 18.4514 4.5 16.4614 4.5H7.6614ZM17.3114 6C17.6429 6 17.9609 6.1317 18.1953 6.36612C18.4297 6.60054 18.5614 6.91848 18.5614 7.25C18.5614 7.58152 18.4297 7.89946 18.1953 8.13388C17.9609 8.3683 17.6429 8.5 17.3114 8.5C16.9799 8.5 16.6619 8.3683 16.4275 8.13388C16.1931 7.89946 16.0614 7.58152 16.0614 7.25C16.0614 6.91848 16.1931 6.60054 16.4275 6.36612C16.6619 6.1317 16.9799 6 17.3114 6ZM12.0614 7.5C13.3875 7.5 14.6593 8.02678 15.5969 8.96447C16.5346 9.90215 17.0614 11.1739 17.0614 12.5C17.0614 13.8261 16.5346 15.0979 15.5969 16.0355C14.6593 16.9732 13.3875 17.5 12.0614 17.5C10.7353 17.5 9.46355 16.9732 8.52587 16.0355C7.58819 15.0979 7.0614 13.8261 7.0614 12.5C7.0614 11.1739 7.58819 9.90215 8.52587 8.96447C9.46355 8.02678 10.7353 7.5 12.0614 7.5ZM12.0614 9.5C11.2658 9.5 10.5027 9.81607 9.94008 10.3787C9.37747 10.9413 9.0614 11.7044 9.0614 12.5C9.0614 13.2956 9.37747 14.0587 9.94008 14.6213C10.5027 15.1839 11.2658 15.5 12.0614 15.5C12.8571 15.5 13.6201 15.1839 14.1827 14.6213C14.7453 14.0587 15.0614 13.2956 15.0614 12.5C15.0614 11.7044 14.7453 10.9413 14.1827 10.3787C13.6201 9.81607 12.8571 9.5 12.0614 9.5Z" fill="#C1C1C1"/>
</svg>
