<svg width="58" height="58" viewBox="0 0 58 58" fill="none" xmlns="http://www.w3.org/2000/svg">
<path d="M50.75 17.7698V40.2303C50.7501 40.4892 50.6809 40.7434 50.5496 40.9665C50.4183 41.1896 50.2297 41.3735 50.0033 41.4991L29.7033 52.7752C29.4881 52.8946 29.2461 52.9572 29 52.9572C28.7539 52.9572 28.5119 52.8946 28.2967 52.7752L7.99675 41.4991C7.77035 41.3735 7.5817 41.1896 7.45038 40.9665C7.31906 40.7434 7.24987 40.4892 7.25 40.2303V17.7698C7.25031 17.5114 7.3197 17.2577 7.45099 17.035C7.58229 16.8124 7.77071 16.6289 7.99675 16.5035L28.2967 5.22492C28.5119 5.10558 28.7539 5.04297 29 5.04297C29.2461 5.04297 29.4881 5.10558 29.7033 5.22492L50.0033 16.5035C50.2293 16.6289 50.4177 16.8124 50.549 17.035C50.6803 17.2577 50.7497 17.5114 50.75 17.7698Z" stroke="url(#paint0_linear_24_929)" stroke-width="4" stroke-linecap="round" stroke-linejoin="round"/>
<path d="M8.52539 17.6273L28.2937 28.6086C28.5092 28.7284 28.7517 28.7912 28.9982 28.7912C29.2447 28.7912 29.4872 28.7284 29.7026 28.6086L49.541 17.5886M28.9994 50.7501V29.0001" stroke="url(#paint1_linear_24_929)" stroke-width="4" stroke-linecap="round" stroke-linejoin="round"/>
<defs>
<linearGradient id="paint0_linear_24_929" x1="29" y1="5.04297" x2="29" y2="52.9572" gradientUnits="userSpaceOnUse">
<stop stop-color="#24DCF5"/>
<stop offset="0.78"/>
</linearGradient>
<linearGradient id="paint1_linear_24_929" x1="29.0332" y1="17.5886" x2="29.0332" y2="50.7501" gradientUnits="userSpaceOnUse">
<stop stop-color="#24DCF5"/>
<stop offset="0.78"/>
</linearGradient>
</defs>
</svg>
