<svg width="25" height="25" viewBox="0 0 25 25" fill="none" xmlns="http://www.w3.org/2000/svg">
<g clip-path="url(#clip0_24_884)">
<path d="M8.0614 6.5C9.6527 6.5 11.1788 7.13214 12.304 8.25736C13.4293 9.38258 14.0614 10.9087 14.0614 12.5C14.0614 14.0913 13.4293 15.6174 12.304 16.7426C11.1788 17.8679 9.6527 18.5 8.0614 18.5C6.4701 18.5 4.94398 17.8679 3.81876 16.7426C2.69354 15.6174 2.0614 14.0913 2.0614 12.5C2.0614 10.9087 2.69354 9.38258 3.81876 8.25736C4.94398 7.13214 6.4701 6.5 8.0614 6.5ZM17.0614 7.5C18.5614 7.5 19.5614 9.739 19.5614 12.5C19.5614 15.261 18.5614 17.5 17.0614 17.5C15.5614 17.5 14.5614 15.261 14.5614 12.5C14.5614 9.739 15.5614 7.5 17.0614 7.5ZM21.0614 8C21.4414 8 21.7734 8.827 21.9414 10.246L21.9884 10.689L22.0074 10.924L22.0374 11.418L22.0474 11.677L22.0594 12.218L22.0614 12.5L22.0594 12.782L22.0474 13.323L22.0374 13.583L22.0074 14.076L21.9874 14.311L21.9424 14.754C21.7734 16.174 21.4424 17 21.0614 17C20.6814 17 20.3494 16.173 20.1814 14.754L20.1344 14.311L20.1154 14.076L20.0854 13.582L20.0754 13.323L20.0634 12.782V12.218L20.0754 11.677L20.0854 11.417L20.1154 10.924L20.1354 10.689L20.1804 10.246C20.3494 8.826 20.6804 8 21.0614 8Z" fill="#C1C1C1"/>
</g>
<defs>
<clipPath id="clip0_24_884">
<rect width="24" height="24" fill="white" transform="translate(0.0614014 0.5)"/>
</clipPath>
</defs>
</svg>
