<svg width="13" height="12" viewBox="0 0 13 12" fill="none" xmlns="http://www.w3.org/2000/svg">
<path d="M12.7196 6.37591L7.93836 11.1572C7.83867 11.2568 7.70347 11.3128 7.5625 11.3128C7.42152 11.3128 7.28632 11.2568 7.18664 11.1572C7.08696 11.0575 7.03095 10.9223 7.03095 10.7813C7.03095 10.6403 7.08696 10.5051 7.18664 10.4054L11.0614 6.5313H0.65625C0.515354 6.5313 0.380228 6.47533 0.2806 6.3757C0.180971 6.27607 0.125 6.14095 0.125 6.00005C0.125 5.85916 0.180971 5.72403 0.2806 5.6244C0.380228 5.52477 0.515354 5.4688 0.65625 5.4688H11.0614L7.18664 1.59466C7.08696 1.49498 7.03095 1.35978 7.03095 1.2188C7.03095 1.07783 7.08696 0.942626 7.18664 0.842942C7.28632 0.743258 7.42152 0.687256 7.5625 0.687256C7.70347 0.687256 7.83867 0.743258 7.93836 0.842942L12.7196 5.62419C12.769 5.67353 12.8082 5.73212 12.8349 5.79661C12.8617 5.86111 12.8754 5.93024 12.8754 6.00005C12.8754 6.06987 12.8617 6.139 12.8349 6.20349C12.8082 6.26798 12.769 6.32657 12.7196 6.37591Z" fill="#434343"/>
</svg>
