<svg width="58" height="58" viewBox="0 0 58 58" fill="none" xmlns="http://www.w3.org/2000/svg">
<path fill-rule="evenodd" clip-rule="evenodd" d="M19.3327 4.8335C19.9246 4.83357 20.4959 5.05089 20.9382 5.44422C21.3806 5.83756 21.6632 6.37956 21.7324 6.96741L21.7493 7.25016V12.0835C23.5986 12.0834 25.378 12.7899 26.7235 14.0586C28.0689 15.3272 28.8788 17.0621 28.9873 18.9082L28.9993 19.3335V33.8335C28.9995 35.6828 28.2929 37.4622 27.0242 38.8076C25.7556 40.1531 24.0208 40.9629 22.1747 41.0714L21.7493 41.0835V50.7502C21.7487 51.3661 21.5128 51.9586 21.09 52.4065C20.6671 52.8544 20.0892 53.1239 19.4743 53.16C18.8594 53.1961 18.2539 52.996 17.7816 52.6007C17.3092 52.2053 17.0057 51.6446 16.9329 51.0329L16.916 50.7502V41.0835C15.0668 41.0836 13.2874 40.377 11.9419 39.1084C10.5964 37.8397 9.78659 36.1049 9.6781 34.2588L9.66602 33.8335V19.3335C9.66591 17.4842 10.3725 15.7048 11.6411 14.3594C12.9098 13.0139 14.6446 12.2041 16.4907 12.0956L16.916 12.0835V7.25016C16.916 6.60922 17.1706 5.99453 17.6238 5.54132C18.0771 5.08811 18.6917 4.8335 19.3327 4.8335ZM41.0827 4.8335C41.6746 4.83357 42.2459 5.05089 42.6882 5.44422C43.1306 5.83756 43.4132 6.37956 43.4824 6.96741L43.4994 7.25016V16.9168C45.3486 16.9167 47.128 17.6233 48.4735 18.8919C49.8189 20.1606 50.6288 21.8954 50.7373 23.7415L50.7494 24.1668V38.6668C50.7495 40.5161 50.0429 42.2955 48.7743 43.641C47.5056 44.9864 45.7708 45.7963 43.9247 45.9047L43.4994 45.9168V50.7502C43.4987 51.3661 43.2628 51.9586 42.84 52.4065C42.4171 52.8544 41.8392 53.1239 41.2243 53.16C40.6094 53.1961 40.0039 52.996 39.5316 52.6007C39.0592 52.2053 38.7557 51.6446 38.6829 51.0329L38.666 50.7502V45.9168C36.8168 45.9169 35.0374 45.2104 33.6919 43.9417C32.3464 42.6731 31.5366 40.9382 31.4281 39.0922L31.416 38.6668V24.1668C31.4159 22.3176 32.1225 20.5382 33.3911 19.1927C34.6598 17.8472 36.3946 17.0374 38.2407 16.9289L38.666 16.9168V7.25016C38.666 6.60922 38.9206 5.99453 39.3738 5.54132C39.8271 5.08811 40.4417 4.8335 41.0827 4.8335ZM43.4994 21.7502H38.666C38.0741 21.7502 37.5028 21.9676 37.0604 22.3609C36.6181 22.7542 36.3355 23.2962 36.2663 23.8841L36.2493 24.1668V38.6668C36.2494 39.2588 36.4667 39.8301 36.8601 40.2724C37.2534 40.7147 37.7954 40.9973 38.3833 41.0666L38.666 41.0835H43.4994C44.0913 41.0834 44.6626 40.8661 45.1049 40.4728C45.5472 40.0794 45.8298 39.5374 45.8991 38.9496L45.916 38.6668V24.1668C45.9159 23.5749 45.6986 23.0036 45.3053 22.5613C44.912 22.1189 44.37 21.8363 43.7821 21.7671L43.4994 21.7502ZM21.7493 16.9168H16.916C16.3241 16.9169 15.7528 17.1342 15.3105 17.5276C14.8681 17.9209 14.5855 18.4629 14.5163 19.0507L14.4993 19.3335V33.8335C14.4994 34.4254 14.7167 34.9967 15.1101 35.4391C15.5034 35.8814 16.0454 36.164 16.6333 36.2332L16.916 36.2502H21.7493C22.3413 36.2501 22.9126 36.0328 23.3549 35.6394C23.7973 35.2461 24.0798 34.7041 24.1491 34.1162L24.166 33.8335V19.3335C24.1659 18.7416 23.9486 18.1703 23.5553 17.7279C23.162 17.2856 22.62 17.003 22.0321 16.9337L21.7493 16.9168Z" fill="url(#paint0_linear_24_938)"/>
<defs>
<linearGradient id="paint0_linear_24_938" x1="30.2077" y1="4.8335" x2="30.2077" y2="53.1642" gradientUnits="userSpaceOnUse">
<stop stop-color="#22CFE7"/>
<stop offset="0.892161"/>
</linearGradient>
</defs>
</svg>
