<svg width="1600" height="1657" viewBox="0 0 1600 1657" fill="none" xmlns="http://www.w3.org/2000/svg">
<circle cx="812.998" cy="1038" r="619" fill="#0F1011"/>
<path d="M46.9255 1199.77C50.0853 1210.79 58.3737 1220.1 71.3599 1227.73C84.3487 1235.36 102.001 1241.27 123.806 1245.49C167.413 1253.93 227.517 1255.57 299.849 1250.68C444.505 1240.91 637.958 1205.06 845.915 1145.43C1053.87 1085.8 1236.93 1013.69 1364.78 945.319C1428.71 911.13 1478.81 877.889 1511.32 847.625C1527.58 832.493 1539.41 818.123 1546.39 804.772C1553.36 791.423 1555.45 779.13 1552.29 768.11C1549.13 757.091 1540.84 747.774 1527.86 740.148C1514.87 732.521 1497.22 726.607 1475.41 722.388C1431.8 713.95 1371.7 712.31 1299.37 717.195C1154.71 726.962 961.258 762.816 753.301 822.447C545.344 882.077 362.287 954.186 234.436 1022.56C170.506 1056.75 120.404 1089.99 87.8943 1120.25C71.6388 1135.38 59.8025 1149.75 52.8294 1163.11C45.8577 1176.45 43.7656 1188.75 46.9255 1199.77Z" stroke="url(#paint0_linear_267_5)" stroke-opacity="0.4"/>
<path d="M46.9255 1199.77C50.0853 1210.79 58.3737 1220.1 71.3599 1227.73C84.3487 1235.36 102.001 1241.27 123.806 1245.49C167.413 1253.93 227.517 1255.57 299.849 1250.68C444.505 1240.91 637.958 1205.06 845.915 1145.43C1053.87 1085.8 1236.93 1013.69 1364.78 945.319C1428.71 911.13 1478.81 877.889 1511.32 847.625C1527.58 832.493 1539.41 818.123 1546.39 804.772C1553.36 791.423 1555.45 779.13 1552.29 768.11C1549.13 757.091 1540.84 747.774 1527.86 740.148C1514.87 732.521 1497.22 726.607 1475.41 722.388C1431.8 713.95 1371.7 712.31 1299.37 717.195C1154.71 726.962 961.258 762.816 753.301 822.447C545.344 882.077 362.287 954.186 234.436 1022.56C170.506 1056.75 120.404 1089.99 87.8943 1120.25C71.6388 1135.38 59.8025 1149.75 52.8294 1163.11C45.8577 1176.45 43.7656 1188.75 46.9255 1199.77Z" stroke="url(#paint1_linear_267_5)" stroke-opacity="0.4"/>
<g filter="url(#filter0_f_267_5)">
<path d="M731.327 755.043C638.399 943.831 573.977 1248.36 552.39 1237.73C530.802 1227.1 560.223 905.351 653.151 716.562C746.079 527.773 1098.8 212.104 1120.39 222.73C1141.98 233.356 824.255 566.254 731.327 755.043Z" fill="#AE47FF" fill-opacity="0.6"/>
</g>
<g filter="url(#filter1_f_267_5)">
<path d="M710.893 770.128C617.965 958.917 732.481 1327.82 710.893 1317.19C689.306 1306.57 718.727 984.815 811.655 796.027C904.583 607.238 1234.31 222.604 1255.89 233.23C1210.39 210.833 803.821 581.339 710.893 770.128Z" fill="#2AABEE" fill-opacity="0.6"/>
</g>
<defs>
<filter id="filter0_f_267_5" x="324.051" y="0.868744" width="1018.99" height="1458.73" filterUnits="userSpaceOnUse" color-interpolation-filters="sRGB">
<feFlood flood-opacity="0" result="BackgroundImageFix"/>
<feBlend mode="normal" in="SourceGraphic" in2="BackgroundImageFix" result="shape"/>
<feGaussianBlur stdDeviation="110.8" result="effect1_foregroundBlur_267_5"/>
</filter>
<filter id="filter1_f_267_5" x="488.089" y="46.3588" width="953.704" height="1456.96" filterUnits="userSpaceOnUse" color-interpolation-filters="sRGB">
<feFlood flood-opacity="0" result="BackgroundImageFix"/>
<feBlend mode="normal" in="SourceGraphic" in2="BackgroundImageFix" result="shape"/>
<feGaussianBlur stdDeviation="92.95" result="effect1_foregroundBlur_267_5"/>
</filter>
<linearGradient id="paint0_linear_267_5" x1="753.256" y1="821.94" x2="951" y2="1115" gradientUnits="userSpaceOnUse">
<stop offset="0.630262" stop-opacity="0"/>
<stop offset="1" stop-color="white"/>
</linearGradient>
<linearGradient id="paint1_linear_267_5" x1="753.256" y1="821.94" x2="738" y2="1179.5" gradientUnits="userSpaceOnUse">
<stop offset="0.630262" stop-opacity="0"/>
<stop offset="1" stop-color="white"/>
</linearGradient>
</defs>
</svg>
