<svg width="9" height="11" viewBox="0 0 9 11" fill="none" xmlns="http://www.w3.org/2000/svg">
<path d="M0.539215 5.48353H8.46M1.25893 5.48353L1.61957 10.5247M7.74107 5.48353L7.38043 10.5247M6.85714 5.50003C6.85714 4.87487 6.6088 4.27532 6.16675 3.83327C5.7247 3.39122 5.12515 3.14288 4.5 3.14288C3.87485 3.14288 3.2753 3.39122 2.83325 3.83327C2.3912 4.27532 2.14286 4.87487 2.14286 5.50003M4.5 2.96217C4.66914 2.96814 4.83776 2.93999 4.99578 2.87938C5.15381 2.81878 5.29801 2.72697 5.41978 2.60942C5.54155 2.49187 5.6384 2.35101 5.70454 2.19522C5.77069 2.03943 5.80478 1.87192 5.80478 1.70267C5.80478 1.53342 5.77069 1.36591 5.70454 1.21012C5.6384 1.05433 5.54155 0.913462 5.41978 0.795917C5.29801 0.678372 5.15381 0.586558 4.99578 0.525953C4.83776 0.465348 4.66914 0.437193 4.5 0.443169C4.17366 0.454697 3.86453 0.592442 3.63774 0.827385C3.41096 1.06233 3.28421 1.37612 3.28421 1.70267C3.28421 2.02921 3.41096 2.34301 3.63774 2.57795C3.86453 2.81289 4.17366 2.95064 4.5 2.96217ZM4.5 6.74931L4.96357 7.68824L5.99914 7.8391L5.24957 8.56981L5.42636 9.60145L4.5 9.11431L3.57286 9.60145L3.75043 8.56981L3.00086 7.8391L4.03643 7.68824L4.5 6.74931Z" stroke="white" stroke-linecap="round" stroke-linejoin="round"/>
</svg>
