<svg width="10" height="11" viewBox="0 0 10 11" fill="none" xmlns="http://www.w3.org/2000/svg">
<g clip-path="url(#clip0_24_716)">
<path fill-rule="evenodd" clip-rule="evenodd" d="M6.54416 5.20543C6.62227 5.28357 6.66615 5.38953 6.66615 5.50001C6.66615 5.6105 6.62227 5.71646 6.54416 5.7946L4.18707 8.15168C4.14864 8.19148 4.10266 8.22322 4.05183 8.24506C4.00099 8.26689 3.94632 8.27839 3.89099 8.27887C3.83567 8.27935 3.7808 8.26881 3.72959 8.24786C3.67839 8.22691 3.63186 8.19597 3.59274 8.15685C3.55362 8.11772 3.52268 8.0712 3.50173 8.02C3.48078 7.96879 3.47024 7.91392 3.47072 7.8586C3.4712 7.80327 3.48269 7.7486 3.50453 7.69776C3.52637 7.64693 3.55811 7.60095 3.59791 7.56251L5.66041 5.50001L3.59791 3.43751C3.52201 3.35893 3.48001 3.25368 3.48096 3.14443C3.48191 3.03518 3.52573 2.93068 3.60298 2.85342C3.68024 2.77617 3.78474 2.73235 3.89399 2.7314C4.00324 2.73045 4.10849 2.77245 4.18707 2.84835L6.54416 5.20543Z" fill="white"/>
</g>
<defs>
<clipPath id="clip0_24_716">
<rect width="10" height="10" fill="white" transform="translate(0 0.5)"/>
</clipPath>
</defs>
</svg>
