<svg width="252" height="241" viewBox="0 0 252 241" fill="none" xmlns="http://www.w3.org/2000/svg">
<path d="M512.906 120.5C512.908 144.167 505.891 167.303 492.743 186.982C479.595 206.661 460.907 221.999 439.041 231.056C417.176 240.113 393.116 242.483 369.904 237.865C346.691 233.248 325.37 221.85 308.635 205.114L307.93 204.366L179.834 59.7105C167.841 47.858 152.611 39.8175 136.059 36.601C119.507 33.3844 102.374 35.1355 86.8153 41.6338C71.2565 48.1321 57.9674 59.0873 48.6203 73.1207C39.2732 87.1542 34.2859 103.639 34.2859 120.5C34.2859 137.361 39.2732 153.846 48.6203 167.88C57.9674 181.913 71.2565 192.868 86.8153 199.367C102.374 205.865 119.507 207.616 136.059 204.399C152.611 201.183 167.841 193.142 179.834 181.29L198.039 160.735C201.045 157.334 205.279 155.268 209.809 154.989C214.339 154.711 218.794 156.243 222.195 159.25C225.595 162.256 227.661 166.49 227.94 171.02C228.218 175.55 226.686 180.005 223.68 183.405L205.111 204.366L204.406 205.114C187.672 221.847 166.351 233.242 143.14 237.858C119.929 242.474 95.8712 240.104 74.0075 231.047C52.1439 221.99 33.4569 206.653 20.3094 186.976C7.16195 167.299 0.144531 144.165 0.144531 120.5C0.144531 96.8349 7.16195 73.7011 20.3094 54.024C33.4569 34.3469 52.1439 19.0102 74.0075 9.95334C95.8712 0.896487 119.929 -1.47381 143.14 3.14216C166.351 7.75813 187.672 19.1531 204.406 35.8861L205.111 36.6339L333.208 181.29C345.2 193.142 360.431 201.183 376.983 204.399C393.534 207.616 410.668 205.865 426.227 199.367C441.785 192.868 455.074 181.913 464.422 167.88C473.769 153.846 478.756 137.361 478.756 120.5C478.756 103.639 473.769 87.1542 464.422 73.1207C455.074 59.0873 441.785 48.1321 426.227 41.6338C410.668 35.1355 393.534 33.3844 376.983 36.601C360.431 39.8175 345.2 47.858 333.208 59.7105L315.003 80.2657C311.997 83.6659 307.763 85.7325 303.233 86.011C298.703 86.2895 294.247 84.757 290.847 81.7507C287.447 78.7444 285.381 74.5105 285.102 69.9805C284.824 65.4504 286.356 60.9953 289.362 57.5951L307.93 36.6339L308.635 35.8861C325.37 19.1501 346.691 7.75257 369.904 3.13489C393.116 -1.48279 417.176 0.886827 439.041 9.94404C460.907 19.0012 479.595 34.3392 492.743 54.0182C505.891 73.6971 512.908 96.8331 512.906 120.5Z" fill="url(#paint0_linear_24_811)" fill-opacity="0.07"/>
<defs>
<linearGradient id="paint0_linear_24_811" x1="256.525" y1="0.835205" x2="256.525" y2="240.165" gradientUnits="userSpaceOnUse">
<stop stop-color="white"/>
<stop offset="1"/>
</linearGradient>
</defs>
</svg>
