<svg width="488" height="422" viewBox="0 0 488 422" fill="none" xmlns="http://www.w3.org/2000/svg">
<path d="M2.92611 345.306C9.28069 367.467 28.3343 384.927 57.5099 397.482C86.6811 410.036 125.899 417.651 172.427 420.159C265.479 425.175 387.654 409.757 516.887 372.7C646.12 335.643 757.901 283.975 834.155 230.412C872.284 203.629 901.507 176.388 919.594 150.284C937.683 124.175 944.588 99.2715 938.234 77.1104C931.879 54.9494 912.826 37.4891 883.65 24.9337C854.479 12.3802 815.261 4.76459 768.733 2.25659C675.681 -2.75914 553.506 12.6591 424.273 49.716C295.04 86.773 183.259 138.441 107.005 192.004C68.8756 218.787 39.6526 246.028 21.5664 272.132C3.47739 298.241 -3.42846 323.145 2.92611 345.306Z" stroke="url(#paint0_linear_24_905)"/>
<defs>
<linearGradient id="paint0_linear_24_905" x1="424.193" y1="49.2189" x2="517.082" y2="373.164" gradientUnits="userSpaceOnUse">
<stop stop-opacity="0"/>
<stop offset="1" stop-color="white"/>
</linearGradient>
</defs>
</svg>
