<svg width="256" height="241" viewBox="0 0 256 241" fill="none" xmlns="http://www.w3.org/2000/svg">
<path d="M255.906 120.5C255.908 144.167 248.891 167.303 235.743 186.982C222.595 206.661 203.907 221.999 182.041 231.056C160.176 240.113 136.116 242.483 112.904 237.865C89.6913 233.248 68.3698 221.85 51.6355 205.114L50.9304 204.366L-77.166 59.7105C-89.1586 47.858 -104.389 39.8175 -120.941 36.601C-137.493 33.3844 -154.626 35.1355 -170.185 41.6338C-185.744 48.1321 -199.033 59.0873 -208.38 73.1207C-217.727 87.1542 -222.714 103.639 -222.714 120.5C-222.714 137.361 -217.727 153.846 -208.38 167.88C-199.033 181.913 -185.744 192.868 -170.185 199.367C-154.626 205.865 -137.493 207.616 -120.941 204.399C-104.389 201.183 -89.1586 193.142 -77.166 181.29L-58.9611 160.735C-55.9548 157.334 -51.7209 155.268 -47.1909 154.989C-42.6608 154.711 -38.2056 156.243 -34.8055 159.25C-31.4053 162.256 -29.3387 166.49 -29.0602 171.02C-28.7817 175.55 -30.3141 180.005 -33.3205 183.405L-51.8886 204.366L-52.5937 205.114C-69.3284 221.847 -90.6491 233.242 -113.86 237.858C-137.071 242.474 -161.129 240.104 -182.992 231.047C-204.856 221.99 -223.543 206.653 -236.691 186.976C-249.838 167.299 -256.855 144.165 -256.855 120.5C-256.855 96.8349 -249.838 73.7011 -236.691 54.024C-223.543 34.3469 -204.856 19.0102 -182.992 9.95334C-161.129 0.896487 -137.071 -1.47381 -113.86 3.14216C-90.6491 7.75813 -69.3284 19.1531 -52.5937 35.8861L-51.8886 36.6339L76.2078 181.29C88.2004 193.142 103.431 201.183 119.983 204.399C136.534 207.616 153.668 205.865 169.227 199.367C184.785 192.868 198.074 181.913 207.422 167.88C216.769 153.846 221.756 137.361 221.756 120.5C221.756 103.639 216.769 87.1542 207.422 73.1207C198.074 59.0873 184.785 48.1321 169.227 41.6338C153.668 35.1355 136.534 33.3844 119.983 36.601C103.431 39.8175 88.2004 47.858 76.2078 59.7105L58.0029 80.2657C54.9966 83.6659 50.7628 85.7325 46.2327 86.011C41.7027 86.2895 37.2475 84.757 33.8474 81.7507C30.4472 78.7444 28.3805 74.5106 28.1021 69.9805C27.8235 65.4504 29.356 60.9953 32.3623 57.5951L50.9304 36.6339L51.6355 35.8861C68.3698 19.1501 89.6913 7.75257 112.904 3.13489C136.116 -1.48279 160.176 0.886826 182.041 9.94404C203.907 19.0012 222.595 34.3392 235.743 54.0182C248.891 73.6971 255.908 96.8331 255.906 120.5Z" fill="url(#paint0_linear_24_809)" fill-opacity="0.07"/>
<defs>
<linearGradient id="paint0_linear_24_809" x1="-0.474762" y1="0.835205" x2="-0.474762" y2="240.165" gradientUnits="userSpaceOnUse">
<stop stop-color="white"/>
<stop offset="1"/>
</linearGradient>
</defs>
</svg>
