<svg width="390" height="659" viewBox="0 0 390 659" fill="none" xmlns="http://www.w3.org/2000/svg">
<g filter="url(#filter0_i_24_1125)">
<ellipse cx="195.5" cy="329.5" rx="508.5" ry="329.5" fill="url(#paint0_linear_24_1125)"/>
</g>
<path d="M703 329.5C703 420.037 646.366 502.138 554.52 561.652C462.684 621.161 335.754 658 195.5 658C55.2459 658 -71.6841 621.161 -163.52 561.652C-255.366 502.138 -312 420.037 -312 329.5C-312 238.963 -255.366 156.862 -163.52 97.3475C-71.6841 37.8393 55.2459 1 195.5 1C335.754 1 462.684 37.8393 554.52 97.3475C646.366 156.862 703 238.963 703 329.5Z" stroke="url(#paint1_linear_24_1125)" stroke-width="2"/>
<defs>
<filter id="filter0_i_24_1125" x="-313" y="0" width="1017" height="693" filterUnits="userSpaceOnUse" color-interpolation-filters="sRGB">
<feFlood flood-opacity="0" result="BackgroundImageFix"/>
<feBlend mode="normal" in="SourceGraphic" in2="BackgroundImageFix" result="shape"/>
<feColorMatrix in="SourceAlpha" type="matrix" values="0 0 0 0 0 0 0 0 0 0 0 0 0 0 0 0 0 0 127 0" result="hardAlpha"/>
<feOffset dy="34"/>
<feGaussianBlur stdDeviation="38.55"/>
<feComposite in2="hardAlpha" operator="arithmetic" k2="-1" k3="1"/>
<feColorMatrix type="matrix" values="0 0 0 0 0.613 0 0 0 0 1 0 0 0 0 0.55 0 0 0 0.12 0"/>
<feBlend mode="normal" in2="shape" result="effect1_innerShadow_24_1125"/>
</filter>
<linearGradient id="paint0_linear_24_1125" x1="195.5" y1="0" x2="195.5" y2="659" gradientUnits="userSpaceOnUse">
<stop offset="0.213669" stop-color="#030405"/>
<stop offset="1" stop-color="#030405" stop-opacity="0"/>
</linearGradient>
<linearGradient id="paint1_linear_24_1125" x1="534.5" y1="91" x2="-139.075" y2="90.0215" gradientUnits="userSpaceOnUse">
<stop stop-opacity="0"/>
<stop offset="0.496657" stop-color="#0CB97F"/>
<stop offset="1" stop-opacity="0"/>
</linearGradient>
</defs>
</svg>
