<svg width="36" height="36" viewBox="0 0 36 36" fill="none" xmlns="http://www.w3.org/2000/svg">
<rect x="0.5" y="0.5" width="35" height="35" rx="17.5" stroke="white"/>
<path d="M8.40217 16.2584C8.65976 16.0009 9.00908 15.8562 9.37331 15.8562C9.73753 15.8562 10.0869 16.0009 10.3444 16.2584L15.2015 21.1155L24.9128 11.4027C25.0404 11.2751 25.1918 11.1739 25.3584 11.1048C25.5251 11.0357 25.7037 11.0001 25.8842 11C26.0646 10.9999 26.2432 11.0354 26.41 11.1044C26.5767 11.1734 26.7282 11.2745 26.8558 11.4021C26.9834 11.5296 27.0847 11.681 27.1538 11.8477C27.2229 12.0143 27.2585 12.193 27.2585 12.3734C27.2586 12.5538 27.2231 12.7325 27.1541 12.8992C27.0851 13.0659 26.984 13.2174 26.8565 13.345L15.2015 25L8.40217 18.2007C8.14466 17.9431 8 17.5938 8 17.2295C8 16.8653 8.14466 16.516 8.40217 16.2584Z" fill="white"/>
</svg>
