<svg width="52" height="44" viewBox="0 0 52 44" fill="none" xmlns="http://www.w3.org/2000/svg">
<path fill-rule="evenodd" clip-rule="evenodd" d="M21.032 0.854004H28.5527C32.9945 0.854004 36.5132 0.854004 39.2657 1.22375C42.0981 1.60559 44.3915 2.40792 46.2016 4.21559C48.4346 6.451 49.1475 9.44284 49.4061 13.3264C50.8005 13.9378 51.8542 15.2356 51.9677 16.8789C51.9798 17.0263 51.9798 17.1834 51.9798 17.3284V26.6713C51.9798 26.8163 51.9798 26.9733 51.9702 27.1183C51.8542 28.7617 50.8005 30.0618 49.4061 30.6757C49.1475 34.5568 48.4346 37.5487 46.2016 39.7841C44.3915 41.5918 42.0981 42.3941 39.2657 42.7759C36.5107 43.1457 32.9945 43.1457 28.5527 43.1457H21.032C16.5902 43.1457 13.0715 43.1457 10.3189 42.7759C7.48657 42.3941 5.19315 41.5918 3.38307 39.7841C1.5754 37.974 0.773068 35.6806 0.391234 32.8483C0.0214844 30.0933 0.0214844 26.577 0.0214844 22.1352V21.8645C0.0214844 17.4227 0.0214844 13.904 0.391234 11.1514C0.773068 8.31909 1.5754 6.02567 3.38307 4.21559C5.19315 2.40792 7.48657 1.60559 10.3189 1.22375C13.0739 0.854004 16.5902 0.854004 21.032 0.854004ZM45.74 31.0623H41.0565C35.8727 31.0623 31.4357 27.128 31.4357 21.9998C31.4357 16.8717 35.8727 12.9373 41.0541 12.9373H45.7376C45.4621 9.69659 44.841 7.98317 43.6351 6.77967C42.6128 5.75742 41.2112 5.14359 38.78 4.81734C36.2981 4.48384 33.0235 4.479 28.4149 4.479H21.1649C16.5563 4.479 13.2842 4.48384 10.7974 4.81734C8.36865 5.14359 6.96698 5.75742 5.94473 6.77967C4.92248 7.80192 4.30865 9.20359 3.9824 11.6348C3.6489 14.1191 3.64407 17.3913 3.64407 21.9998C3.64407 26.6084 3.6489 29.883 3.9824 32.3673C4.30865 34.7961 4.92248 36.1978 5.94473 37.22C6.96698 38.2423 8.36865 38.8561 10.7998 39.1823C13.2842 39.5158 16.5563 39.5207 21.1649 39.5207H28.4149C33.0235 39.5207 36.2981 39.5158 38.7824 39.1823C41.2112 38.8561 42.6128 38.2423 43.6351 37.22C44.841 36.0165 45.4645 34.3055 45.74 31.0623ZM9.68815 12.3332C9.68815 11.8525 9.87911 11.3915 10.219 11.0515C10.5589 10.7116 11.0199 10.5207 11.5007 10.5207H21.1673C21.648 10.5207 22.109 10.7116 22.4489 11.0515C22.7889 11.3915 22.9798 11.8525 22.9798 12.3332C22.9798 12.8139 22.7889 13.2749 22.4489 13.6148C22.109 13.9547 21.648 14.1457 21.1673 14.1457H11.5007C11.0199 14.1457 10.5589 13.9547 10.219 13.6148C9.87911 13.2749 9.68815 12.8139 9.68815 12.3332ZM47.567 16.5623H41.0565C37.6152 16.5623 35.0607 19.1216 35.0607 21.9998C35.0607 24.8781 37.6152 27.4373 41.0541 27.4373H47.6226C48.1204 27.4059 48.3355 27.07 48.3524 26.867V17.1327C48.3355 16.9297 48.1204 16.5938 47.6226 16.5648L47.567 16.5623Z" fill="url(#paint0_linear_24_923)"/>
<defs>
<linearGradient id="paint0_linear_24_923" x1="26.0007" y1="0.854004" x2="26.0007" y2="43.1457" gradientUnits="userSpaceOnUse">
<stop stop-color="#26E5FF"/>
<stop offset="0.825"/>
</linearGradient>
</defs>
</svg>
