<svg width="18" height="18" viewBox="0 0 18 18" fill="none" xmlns="http://www.w3.org/2000/svg">
<g filter="url(#filter0_d_205_958)">
<path d="M16.8932 13.0852L10.7444 2.4068C10.5663 2.10221 10.3116 1.84957 10.0055 1.67399C9.69947 1.49842 9.35278 1.40604 8.99995 1.40604C8.64712 1.40604 8.30043 1.49842 7.99438 1.67399C7.68834 1.84957 7.43359 2.10221 7.2555 2.4068L1.10667 13.0852C0.933852 13.3807 0.842773 13.717 0.842773 14.0593C0.842773 14.4017 0.933852 14.7379 1.10667 15.0335C1.28279 15.3396 1.53718 15.5934 1.84374 15.7687C2.1503 15.944 2.49798 16.0346 2.85112 16.0312H15.1488C15.5017 16.0344 15.8491 15.9437 16.1554 15.7683C16.4616 15.593 16.7158 15.3394 16.8918 15.0335C17.0649 14.7381 17.1562 14.4019 17.1564 14.0595C17.1567 13.7171 17.0658 13.3809 16.8932 13.0852ZM15.4307 14.1891C15.4021 14.2378 15.3609 14.2779 15.3114 14.3051C15.2619 14.3323 15.2059 14.3457 15.1495 14.3438H2.85112C2.79465 14.3457 2.73871 14.3323 2.6892 14.3051C2.6397 14.2779 2.59847 14.2378 2.56987 14.1891C2.54561 14.1496 2.53277 14.1042 2.53277 14.0579C2.53277 14.0116 2.54561 13.9662 2.56987 13.9268L8.7187 3.24844C8.74915 3.20157 8.79082 3.16306 8.83994 3.13639C8.88906 3.10973 8.94406 3.09576 8.99995 3.09576C9.05584 3.09576 9.11084 3.10973 9.15996 3.13639C9.20908 3.16306 9.25075 3.20157 9.2812 3.24844L15.4293 13.9268C15.4538 13.9661 15.4669 14.0114 15.4671 14.0577C15.4674 14.104 15.4548 14.1495 15.4307 14.1891ZM8.1562 9.5625V7.3125C8.1562 7.08872 8.24509 6.87411 8.40333 6.71588C8.56156 6.55765 8.77617 6.46875 8.99995 6.46875C9.22373 6.46875 9.43834 6.55765 9.59657 6.71588C9.7548 6.87411 9.8437 7.08872 9.8437 7.3125V9.5625C9.8437 9.78628 9.7548 10.0009 9.59657 10.1591C9.43834 10.3174 9.22373 10.4062 8.99995 10.4062C8.77617 10.4062 8.56156 10.3174 8.40333 10.1591C8.24509 10.0009 8.1562 9.78628 8.1562 9.5625ZM10.1249 12.375C10.1249 12.5975 10.059 12.815 9.93535 13C9.81174 13.185 9.63603 13.3292 9.43047 13.4144C9.2249 13.4995 8.9987 13.5218 8.78047 13.4784C8.56224 13.435 8.36179 13.3278 8.20445 13.1705C8.04712 13.0132 7.93997 12.8127 7.89656 12.5945C7.85316 12.3762 7.87544 12.15 7.96058 11.9445C8.04573 11.7389 8.18993 11.5632 8.37493 11.4396C8.55994 11.316 8.77744 11.25 8.99995 11.25C9.29832 11.25 9.58447 11.3685 9.79544 11.5795C10.0064 11.7905 10.1249 12.0766 10.1249 12.375Z" fill="#C8B400"/>
</g>
<defs>
<filter id="filter0_d_205_958" x="-3.15723" y="-2.59396" width="24.3137" height="22.6253" filterUnits="userSpaceOnUse" color-interpolation-filters="sRGB">
<feFlood flood-opacity="0" result="BackgroundImageFix"/>
<feColorMatrix in="SourceAlpha" type="matrix" values="0 0 0 0 0 0 0 0 0 0 0 0 0 0 0 0 0 0 127 0" result="hardAlpha"/>
<feOffset/>
<feGaussianBlur stdDeviation="2"/>
<feComposite in2="hardAlpha" operator="out"/>
<feColorMatrix type="matrix" values="0 0 0 0 0.784314 0 0 0 0 0.705882 0 0 0 0 0 0 0 0 1 0"/>
<feBlend mode="normal" in2="BackgroundImageFix" result="effect1_dropShadow_205_958"/>
<feBlend mode="normal" in="SourceGraphic" in2="effect1_dropShadow_205_958" result="shape"/>
</filter>
</defs>
</svg>
