<svg width="11" height="11" viewBox="0 0 11 11" fill="none" xmlns="http://www.w3.org/2000/svg">
<g clip-path="url(#clip0_205_411)">
<path d="M5.13334 4.85828C5.59167 5.31662 6.14167 5.54578 6.78334 5.54578L6.82917 6.50828C5.95834 6.50828 5.17917 6.18745 4.49167 5.54578L4.17084 5.22495L3.11667 6.32495L4.125 7.28745V10.0375H3.20834V7.65412L2.6125 7.10412V8.11245L0.687504 10.0833L0.0458374 9.44162L1.69584 7.79162L1.14584 6.18745C1.05417 5.91245 1.19167 5.68328 1.42084 5.49995L2.93334 3.98745C3.11667 3.75828 3.34584 3.66662 3.575 3.66662C3.80417 3.66662 3.94167 3.71245 4.07917 3.80412L5.13334 4.85828ZM11 5.45412H10.0833V3.89578L9.25834 3.57495L9.67084 5.59162L10.1292 7.97495L10.5417 9.99162H9.57917L8.75417 6.32495L7.79167 7.24162V9.99162H6.875V6.55412L7.8375 5.63745L7.5625 4.26245C7.2875 4.53745 6.96667 4.81245 6.6 4.99578C6.1875 4.94995 5.775 4.76662 5.45417 4.44578C6.1875 4.30828 6.69167 3.94162 7.0125 3.39162L7.47084 2.65828C7.74584 2.19995 8.15834 2.06245 8.6625 2.29162L11 3.29995V5.45412ZM5.225 2.01662C5.72917 2.01662 6.14167 2.42912 6.14167 2.93328C6.14167 3.43745 5.72917 3.84995 5.225 3.84995C4.72084 3.84995 4.30834 3.43745 4.30834 2.93328C4.30834 2.42912 4.72084 2.01662 5.225 2.01662ZM7.5625 0.137451C8.06667 0.137451 8.47917 0.549951 8.47917 1.05412C8.47917 1.55828 8.06667 1.97078 7.5625 1.97078C7.05834 1.97078 6.64584 1.55828 6.64584 1.05412C6.64584 0.549951 7.05834 0.137451 7.5625 0.137451Z" fill="white"/>
</g>
<defs>
<clipPath id="clip0_205_411">
<rect width="11" height="11" fill="white"/>
</clipPath>
</defs>
</svg>
